#tb 0: 1/3
#media_type 0: video
#codec_id 0: rawvideo
#dimensions 0: 320x240
#sar 0: 1/1
0,          0,          0,        1,   115200, 0xeba70ff3
0,          2,          2,        1,   115200, 0xa764e4d5
0,          3,          3,        1,   115200, 0x1dadb3a3
0,          5,          5,        1,   115200, 0x2edb3aa4
0,          6,          6,        1,   115200, 0xb8cdb7ac
0,          8,          8,        1,   115200, 0x72f1289d
0,          9,          9,        1,   115200, 0xb789c3ba
0,         11,         11,        1,   115200, 0xd779fa6d
0,         12,         12,        1,   115200, 0xd1084e35
0,         14,         14,        1,   115200, 0xbbc3728b
0,         15,         15,        1,   115200, 0x7bbb8ede
0,         17,         17,        1,   115200, 0x045740bf
0,         18,         18,        1,   115200, 0x939ba4bd
0,         20,         20,        1,   115200, 0x3f712b13
0,         21,         21,        1,   115200, 0x64f1af30
0,         23,         23,        1,   115200, 0xbe2fec7d
0,         24,         24,        1,   115200, 0x782e9c2b
0,         26,         26,        1,   115200, 0x48e5a005
0,         27,         27,        1,   115200, 0xfcdc9615
0,         29,         29,        1,   115200, 0xa4473eed
